<svg width="70" height="34" viewBox="0 0 70 34" fill="none" xmlns="http://www.w3.org/2000/svg">
<path d="M40.0753 3.81818H41.9048L40.7116 11.0021C40.6056 11.6551 40.3802 12.2169 40.0355 12.6875C39.6941 13.1548 39.2599 13.5144 38.733 13.7663C38.2093 14.0149 37.616 14.1392 36.9531 14.1392C36.3532 14.1392 35.8295 14.0331 35.3821 13.821C34.9347 13.6056 34.6049 13.2874 34.3928 12.8665C34.1806 12.4422 34.1259 11.9186 34.2287 11.2955H36.0384C35.9986 11.5772 36.0185 11.8175 36.098 12.0163C36.1809 12.2152 36.3134 12.366 36.4957 12.4688C36.6813 12.5715 36.91 12.6229 37.1818 12.6229C37.4834 12.6229 37.7502 12.5582 37.9822 12.429C38.2176 12.2997 38.4131 12.1108 38.5689 11.8622C38.7247 11.6136 38.834 11.3104 38.897 10.9524L40.0753 3.81818ZM44.3136 14.1541C43.8297 14.1541 43.4087 14.0679 43.0508 13.8956C42.6928 13.7199 42.4293 13.4614 42.2603 13.12C42.0946 12.7786 42.0531 12.3577 42.136 11.8572C42.2089 11.4264 42.3481 11.0701 42.5536 10.7884C42.7624 10.5066 43.0176 10.2812 43.3192 10.1122C43.6242 9.93987 43.9556 9.81061 44.3136 9.72443C44.6748 9.63826 45.0427 9.57528 45.4173 9.53551C45.8746 9.48911 46.2442 9.44602 46.5259 9.40625C46.811 9.36648 47.0247 9.30682 47.1673 9.22727C47.3098 9.14441 47.396 9.01847 47.4258 8.84943V8.8196C47.4854 8.44508 47.4258 8.15507 47.2468 7.94957C47.0678 7.74408 46.7695 7.64134 46.3519 7.64134C45.9144 7.64134 45.5465 7.73745 45.2482 7.92969C44.9499 8.12192 44.7328 8.34896 44.5969 8.6108L42.9663 8.37216C43.1718 7.90814 43.4535 7.52036 43.8114 7.20881C44.1694 6.89394 44.582 6.65862 45.0494 6.50284C45.52 6.34375 46.0221 6.2642 46.5558 6.2642C46.9203 6.2642 47.2766 6.30729 47.6246 6.39347C47.976 6.47964 48.2859 6.62216 48.5543 6.82102C48.8261 7.01657 49.025 7.28338 49.1509 7.62145C49.2802 7.95952 49.3017 8.3821 49.2156 8.8892L48.3654 14H46.6353L46.8143 12.951H46.7546C46.6121 13.1631 46.4265 13.362 46.1978 13.5476C45.9691 13.7299 45.6973 13.8774 45.3825 13.9901C45.0676 14.0994 44.7113 14.1541 44.3136 14.1541ZM44.9947 12.8317C45.3559 12.8317 45.6808 12.7604 45.9691 12.6179C46.2575 12.4721 46.4944 12.2798 46.68 12.0412C46.8656 11.8026 46.9817 11.5424 47.0281 11.2607L47.1772 10.3608C47.1109 10.4072 47.0082 10.4503 46.869 10.4901C46.7298 10.5298 46.574 10.5646 46.4016 10.5945C46.2326 10.6243 46.0652 10.6508 45.8995 10.674C45.7338 10.6972 45.5913 10.7171 45.4719 10.7337C45.1969 10.7701 44.945 10.8298 44.7163 10.9126C44.4909 10.9955 44.3036 11.1115 44.1545 11.2607C44.0086 11.4065 43.9175 11.5954 43.881 11.8274C43.828 12.1555 43.9059 12.4058 44.1147 12.5781C44.3235 12.7472 44.6168 12.8317 44.9947 12.8317ZM57.9954 6.36364L54.0032 14H52.0146L50.5678 6.36364H52.4173L53.2326 12.0362H53.3121L56.0117 6.36364H57.9954ZM59.9268 14.1541C59.4429 14.1541 59.022 14.0679 58.6641 13.8956C58.3061 13.7199 58.0426 13.4614 57.8736 13.12C57.7079 12.7786 57.6664 12.3577 57.7493 11.8572C57.8222 11.4264 57.9614 11.0701 58.1669 10.7884C58.3757 10.5066 58.6309 10.2812 58.9325 10.1122C59.2375 9.93987 59.5689 9.81061 59.9268 9.72443C60.2881 9.63826 60.656 9.57528 61.0305 9.53551C61.4879 9.48911 61.8575 9.44602 62.1392 9.40625C62.4242 9.36648 62.638 9.30682 62.7805 9.22727C62.9231 9.14441 63.0092 9.01847 63.0391 8.84943V8.8196C63.0987 8.44508 63.0391 8.15507 62.8601 7.94957C62.6811 7.74408 62.3828 7.64134 61.9652 7.64134C61.5277 7.64134 61.1598 7.73745 60.8615 7.92969C60.5632 8.12192 60.3461 8.34896 60.2102 8.6108L58.5795 8.37216C58.785 7.90814 59.0668 7.52036 59.4247 7.20881C59.7827 6.89394 60.1953 6.65862 60.6626 6.50284C61.1333 6.34375 61.6354 6.2642 62.169 6.2642C62.5336 6.2642 62.8899 6.30729 63.2379 6.39347C63.5893 6.47964 63.8991 6.62216 64.1676 6.82102C64.4394 7.01657 64.6383 7.28338 64.7642 7.62145C64.8935 7.95952 64.915 8.3821 64.8288 8.8892L63.9787 14H62.2486L62.4276 12.951H62.3679C62.2254 13.1631 62.0398 13.362 61.8111 13.5476C61.5824 13.7299 61.3106 13.8774 60.9957 13.9901C60.6809 14.0994 60.3246 14.1541 59.9268 14.1541ZM60.608 12.8317C60.9692 12.8317 61.294 12.7604 61.5824 12.6179C61.8707 12.4721 62.1077 12.2798 62.2933 12.0412C62.4789 11.8026 62.5949 11.5424 62.6413 11.2607L62.7905 10.3608C62.7242 10.4072 62.6214 10.4503 62.4822 10.4901C62.343 10.5298 62.1873 10.5646 62.0149 10.5945C61.8459 10.6243 61.6785 10.6508 61.5128 10.674C61.3471 10.6972 61.2045 10.7171 61.0852 10.7337C60.8101 10.7701 60.5582 10.8298 60.3295 10.9126C60.1042 10.9955 59.9169 11.1115 59.7678 11.2607C59.6219 11.4065 59.5308 11.5954 59.4943 11.8274C59.4413 12.1555 59.5192 12.4058 59.728 12.5781C59.9368 12.7472 60.2301 12.8317 60.608 12.8317ZM34.7159 31L36.4062 20.8182H39.8416C40.5045 20.8182 41.0381 20.9342 41.4425 21.1662C41.8468 21.3982 42.1252 21.7147 42.2777 22.1158C42.4335 22.5168 42.4666 22.9725 42.3771 23.483C42.3075 23.9072 42.1766 24.2701 41.9844 24.5717C41.7921 24.87 41.5585 25.1136 41.2834 25.3026C41.0116 25.4882 40.7183 25.6224 40.4034 25.7053L40.3885 25.7848C40.7133 25.808 41.0133 25.924 41.2884 26.1328C41.5634 26.3383 41.7689 26.6267 41.9048 26.9979C42.044 27.3691 42.0722 27.8132 41.9893 28.3303C41.9032 28.844 41.7109 29.303 41.4126 29.7074C41.1177 30.1084 40.7133 30.425 40.1996 30.657C39.6892 30.8857 39.0694 31 38.3402 31H34.7159ZM35.7848 30.1648H38.4794C39.2649 30.1648 39.8748 29.9908 40.3089 29.6428C40.7431 29.2947 41.0066 28.8572 41.0994 28.3303C41.1624 27.9425 41.1259 27.5911 40.9901 27.2763C40.8542 26.9581 40.6321 26.7062 40.3239 26.5206C40.0156 26.335 39.6328 26.2422 39.1754 26.2422H36.4411L35.7848 30.1648ZM36.5803 25.4169H39.1705C39.5715 25.4169 39.9361 25.334 40.2642 25.1683C40.5923 25.0026 40.8641 24.7739 41.0795 24.4822C41.295 24.1906 41.4325 23.8575 41.4922 23.483C41.585 22.9427 41.4839 22.5036 41.1889 22.1655C40.8973 21.8241 40.4018 21.6534 39.7024 21.6534H37.1967L36.5803 25.4169ZM45.7093 31.174C45.2486 31.174 44.8426 31.0845 44.4913 30.9055C44.14 30.7232 43.8781 30.4614 43.7058 30.12C43.5368 29.7753 43.4904 29.3577 43.5666 28.8672C43.6329 28.4893 43.7588 28.1712 43.9444 27.9126C44.1333 27.6541 44.372 27.442 44.6603 27.2763C44.9487 27.1072 45.2801 26.9747 45.6547 26.8786C46.0292 26.7824 46.4368 26.7095 46.8777 26.6598C47.3085 26.6068 47.6764 26.5604 47.9814 26.5206C48.2863 26.4808 48.5233 26.4179 48.6923 26.3317C48.8613 26.2455 48.9624 26.1063 48.9956 25.9141L49.0254 25.7351C49.1116 25.2147 49.032 24.8054 48.7868 24.5071C48.5415 24.2055 48.1305 24.0547 47.5538 24.0547C47.0036 24.0547 46.5263 24.1773 46.122 24.4226C45.7209 24.6645 45.4226 24.9479 45.2271 25.2727L44.4416 24.9695C44.6802 24.5518 44.9735 24.2187 45.3216 23.9702C45.6696 23.7183 46.0424 23.5376 46.4402 23.4283C46.8379 23.3156 47.2306 23.2592 47.6184 23.2592C47.9101 23.2592 48.2067 23.2973 48.5083 23.3736C48.81 23.4498 49.0801 23.5824 49.3187 23.7713C49.5607 23.9569 49.738 24.2171 49.8507 24.5518C49.9667 24.8833 49.9833 25.3042 49.9004 25.8146L49.0353 31H48.1504L48.3542 29.7919H48.2995C48.1603 30.0173 47.9681 30.236 47.7228 30.4482C47.4809 30.6603 47.1909 30.8343 46.8528 30.9702C46.5147 31.1061 46.1336 31.174 45.7093 31.174ZM45.9331 30.3636C46.4037 30.3636 46.8296 30.2592 47.2108 30.0504C47.5952 29.8416 47.9101 29.5649 48.1554 29.2202C48.4039 28.8722 48.563 28.4893 48.6326 28.0717L48.8166 26.968C48.7437 27.031 48.6243 27.0874 48.4586 27.1371C48.2962 27.1868 48.1123 27.2315 47.9068 27.2713C47.7046 27.3078 47.5008 27.3393 47.2953 27.3658C47.0931 27.3923 46.9141 27.4155 46.7583 27.4354C46.3175 27.4884 45.9331 27.5713 45.6049 27.6839C45.2801 27.7966 45.0199 27.9524 44.8244 28.1513C44.6288 28.3468 44.5062 28.5987 44.4565 28.907C44.3803 29.371 44.4814 29.7306 44.7598 29.9858C45.0415 30.2377 45.4326 30.3636 45.9331 30.3636ZM53.0648 26.2273L52.2743 31H51.3894L52.6621 23.3636H53.5222L53.3233 24.5618H53.4029C53.6415 24.1707 53.9713 23.8575 54.3922 23.6222C54.8165 23.3835 55.3087 23.2642 55.8688 23.2642C56.3792 23.2642 56.8101 23.3719 57.1614 23.5874C57.516 23.7995 57.7679 24.1127 57.9171 24.527C58.0695 24.9413 58.0961 25.45 57.9966 26.0533L57.1664 31H56.2814L57.0968 26.108C57.1995 25.4848 57.1084 24.991 56.8233 24.6264C56.5416 24.2585 56.1058 24.0746 55.5158 24.0746C55.1148 24.0746 54.7419 24.1607 54.3972 24.3331C54.0558 24.5054 53.7675 24.754 53.5321 25.0788C53.2968 25.4003 53.141 25.7831 53.0648 26.2273ZM60.7795 28.1165L60.9585 26.9482H61.1573L65.3285 23.3636H66.462L62.3406 26.9034L62.261 26.9183L60.7795 28.1165ZM59.4968 31L61.1871 20.8182H62.0721L60.3817 31H59.4968ZM64.2695 31L61.8086 27.0774L62.5295 26.4659L65.3881 31H64.2695Z" fill="white"/>
<path fill-rule="evenodd" clip-rule="evenodd" d="M14 21.1272C13.2761 22.8275 12.119 24.2118 10.7059 25.0645C8.26541 23.5918 6.58824 20.5337 6.58824 17C6.58824 13.4663 8.26541 10.4082 10.7059 8.93552C12.119 9.78824 13.2761 11.1725 14 12.8728C13.4737 14.109 13.1765 15.5124 13.1765 17C13.1765 18.4876 13.4737 19.891 14 21.1272ZM17.2941 25.0645C16.3018 25.6633 15.1833 26 14 26C12.8167 26 11.6982 25.6633 10.7059 25.0645C9.71356 25.6633 8.59505 26 7.41176 26C3.31836 26 0 21.9706 0 17C0 12.0294 3.31836 8 7.41176 8C8.59505 8 9.71356 8.33671 10.7059 8.93552C11.6982 8.33671 12.8167 8 14 8C15.1833 8 16.3018 8.33671 17.2941 8.93552C15.881 9.78824 14.7239 11.1725 14 12.8728C14.5263 14.109 14.8235 15.5124 14.8235 17C14.8235 18.4876 14.5263 19.891 14 21.1272C14.7239 22.8275 15.881 24.2118 17.2941 25.0645ZM17.2941 25.0645C19.7346 23.5918 21.4118 20.5337 21.4118 17C21.4118 13.4663 19.7346 10.4082 17.2941 8.93552C18.2864 8.33671 19.405 8 20.5882 8C24.6816 8 28 12.0294 28 17C28 21.9706 24.6816 26 20.5882 26C19.405 26 18.2864 25.6633 17.2941 25.0645Z" fill="#B79C89"/>
</svg>
